HIERARCHY
ROOT Hips
{
  OFFSET -105.601 103.411 10.8171
  CHANNELS 6 Xposition Yposition Zposition Zrotation Xrotation Yrotation
  JOINT Spine
  {
    OFFSET 0 0 4.66705
    CHANNELS 6 Xposition Yposition Zposition Zrotation Xrotation Yrotation
    JOINT Spine1
    {
      OFFSET 9.33409 0 0
      CHANNELS 6 Xposition Yposition Zposition Zrotation Xrotation Yrotation
      JOINT Spine2
      {
        OFFSET 11.0269 0 0
        CHANNELS 6 Xposition Yposition Zposition Zrotation Xrotation Yrotation
        JOINT Neck
        {
          OFFSET 27.2125 0 -10.2659
          CHANNELS 6 Xposition Yposition Zposition Zrotation Xrotation Yrotation
          JOINT Head
          {
            OFFSET 10.9224 0 0
            CHANNELS 6 Xposition Yposition Zposition Zrotation Xrotation Yrotation
            End Site
            {
              OFFSET 0 0 0
            }
          }
        }
        JOINT RightShoulder
        {
          OFFSET 23.8429 -1.55531 -7.12573
          CHANNELS 6 Xposition Yposition Zposition Zrotation Xrotation Yrotation
          JOINT RightArm
          {
            OFFSET 14.1892 0 0
            CHANNELS 6 Xposition Yposition Zposition Zrotation Xrotation Yrotation
            JOINT RightForeArm
            {
              OFFSET 29.5651 0 0
              CHANNELS 6 Xposition Yposition Zposition Zrotation Xrotation Yrotation
              JOINT RightHand
              {
                OFFSET 25.3936 0 0
                CHANNELS 6 Xposition Yposition Zposition Zrotation Xrotation Yrotation
                JOINT RightFingerBase
                {
                  OFFSET 2.18163 0 0
                  CHANNELS 6 Xposition Yposition Zposition Zrotation Xrotation Yrotation
                  JOINT RightHandMiddle1
                  {
                    OFFSET 6.77462 0.0865053 -1.22157
                    CHANNELS 6 Xposition Yposition Zposition Zrotation Xrotation Yrotation
                    End Site
                    {
                      OFFSET 0 0 0
                    }
                  }
                }
              }
            }
          }
        }
        JOINT LeftShoulder
        {
          OFFSET 23.8431 1.55531 -7.12577
          CHANNELS 6 Xposition Yposition Zposition Zrotation Xrotation Yrotation
          JOINT LeftArm
          {
            OFFSET -14.1892 0.000694916 0
            CHANNELS 6 Xposition Yposition Zposition Zrotation Xrotation Yrotation
            JOINT LeftForeArm
            {
              OFFSET -29.5651 0 0
              CHANNELS 6 Xposition Yposition Zposition Zrotation Xrotation Yrotation
              JOINT LeftHand
              {
                OFFSET -25.3936 0 0
                CHANNELS 6 Xposition Yposition Zposition Zrotation Xrotation Yrotation
                JOINT LeftFingerBase
                {
                  OFFSET -2.18182 -0.000553688 0
                  CHANNELS 6 Xposition Yposition Zposition Zrotation Xrotation Yrotation
                  JOINT LeftHandMiddle1
                  {
                    OFFSET -6.77445 -0.0859989 1.22158
                    CHANNELS 6 Xposition Yposition Zposition Zrotation Xrotation Yrotation
                    End Site
                    {
                      OFFSET 0 0 0
                    }
                  }
                }
              }
            }
          }
        }
      }
    }
  }
  JOINT RightUpLeg
  {
    OFFSET -8.89671 -5.28428 -4.10676
    CHANNELS 6 Xposition Yposition Zposition Zrotation Xrotation Yrotation
    JOINT RightLeg
    {
      OFFSET 43.6759 0 0
      CHANNELS 6 Xposition Yposition Zposition Zrotation Xrotation Yrotation
      JOINT RightFoot
      {
        OFFSET 45.3154 0 0
        CHANNELS 6 Xposition Yposition Zposition Zrotation Xrotation Yrotation
        JOINT RightToeBase
        {
          OFFSET 14.6877 0 0
          CHANNELS 6 Xposition Yposition Zposition Zrotation Xrotation Yrotation
          End Site
          {
            OFFSET 0 0 0
          }
        }
      }
    }
  }
  JOINT LeftUpLeg
  {
    OFFSET 8.89671 -5.28429 -4.10672
    CHANNELS 6 Xposition Yposition Zposition Zrotation Xrotation Yrotation
    JOINT LeftLeg
    {
      OFFSET -43.676 0 0
      CHANNELS 6 Xposition Yposition Zposition Zrotation Xrotation Yrotation
      JOINT LeftFoot
      {
        OFFSET -45.3154 0 0
        CHANNELS 6 Xposition Yposition Zposition Zrotation Xrotation Yrotation
        JOINT LeftToeBase
        {
          OFFSET -14.6877 0 0
          CHANNELS 6 Xposition Yposition Zposition Zrotation Xrotation Yrotation
          End Site
          {
            OFFSET 0 0 0
          }
        }
      }
    }
  }
}
MOTION
Frames:	8
Frame Time:	0.0333333
-19.8316 40.2868 17.6476 81.1148 -16.1866 92.6272 3.55271e-015 3.55271e-015 4.66705 -88.8245 3.47115 -82.3894 9.33409 0 -3.55271e-015 -7.07093 1.87011 8.51003 11.0269 -3.55271e-015 0 -7.24344 1.00771 12.4083 27.2125 -3.55271e-015 -10.2659 26.1015 2.71986 61.5833 10.9224 0 -1.42109e-014 -42.4219 0.583632 -50.3396 23.8429 -1.55531 -7.12573 -107.793 -15.7171 16.0668 14.1892 7.10543e-015 -7.10543e-015 -57.5377 16.0396 45.2346 29.5651 2.13163e-014 7.10543e-015 22.1822 -28.5903 35.6868 25.3936 -2.84217e-014 2.84217e-014 54.4918 -4.19244 -8.7269 2.18163 2.4869e-014 -1.77636e-015 8.00174e-007 1.58589e-006 -1.42833e-007 6.77462 0.0865053 -1.22157 -21.6739 1.19639 -9.42508 23.8431 1.55531 -7.12577 95.8763 10.9591 -176.549 -14.1892 0.000694916 7.10543e-015 5.92139 -22.8203 76.8834 -29.5651 7.10543e-015 -4.27958e-007 12.8188 21.7333 107.491 -25.3936 2.7868e-008 -5.56579e-007 1.34024 9.51195 -0.864353 -2.18182 -0.000553688 -9.22559e-006 8.86284e-007 -1.24892e-008 -1.81133e-007 -6.77445 -0.0859989 1.22158 -21.6739 1.19639 -9.42509 -8.89671 -5.28428 -4.10676 48.2352 -15.6479 -178.28 43.6759 -1.06581e-014 -1.42109e-014 -5.47711 -6.20264 -134.966 45.3154 -7.10543e-015 -2.13163e-014 88.5187 12.7963 95.3281 14.6877 0 0 7.13108 1.55867e-007 1.69398e-006 8.89671 -5.28429 -4.10672 106.988 0.86035 3.34304 -43.676 5.32907e-015 -3.48883e-006 5.57757 -12.6965 -136.784 -45.3154 -7.10543e-015 3.71138e-006 81.0179 23.2601 94.6547 -14.6877 -1.30235e-006 -3.88953e-006 7.13108 -1.1652e-007 5.48907e-006 
-19.6441 40.427 17.9129 80.7339 -16.7475 92.0507 3.55271e-015 7.10543e-015 4.66705 -89.0201 3.28381 -82.3518 9.33409 -3.55271e-015 0 -6.67095 1.50599 8.54071 11.0269 -3.55271e-015 7.10543e-015 -6.80294 0.693982 12.4443 27.2125 -7.10543e-015 -10.2659 27.7932 -0.302559 57.9472 10.9224 0 -2.84217e-014 -45.7949 -0.897072 -49.8832 23.8429 -1.55531 -7.12573 -108.72 -15.7208 15.46 14.1892 1.42109e-014 0 -58.4965 15.319 45.8467 29.5651 2.84217e-014 7.10543e-015 19.1736 -26.7626 32.3493 25.3936 -2.84217e-014 3.01981e-014 54.4624 -3.99736 -7.23082 2.18163 2.84217e-014 0 8.00174e-007 1.58589e-006 -1.42833e-007 6.77462 0.0865053 -1.22157 -21.6739 1.19639 -9.42508 23.8431 1.55531 -7.12577 97.0147 11.1267 -176.187 -14.1892 0.000694916 -1.42109e-014 6.45856 -24.2701 72.8323 -29.5651 0 -4.27958e-007 9.93251 22.01 110.632 -25.3936 2.7868e-008 -5.56579e-007 1.04569 9.46931 -0.524334 -2.18182 -0.000553688 -9.22559e-006 8.86284e-007 -1.24892e-008 -1.81133e-007 -6.77445 -0.0859989 1.22158 -21.6739 1.19639 -9.42509 -8.89671 -5.28428 -4.10676 48.643 -15.1087 -177.85 43.6759 -1.06581e-014 -2.84217e-014 -6.48269 -4.92212 -135.341 45.3154 -7.10543e-015 -2.13163e-014 88.5557 12.5563 95.4077 14.6877 -3.55271e-015 0 7.13108 1.55867e-007 1.69398e-006 8.89671 -5.28429 -4.10672 107.146 0.856832 2.993 -43.676 8.88178e-015 -3.48883e-006 5.6874 -12.8509 -136.636 -45.3154 -7.10543e-015 3.71138e-006 80.0201 23.3721 95.0215 -14.6877 -1.30235e-006 -3.88953e-006 7.13108 -1.1652e-007 5.48907e-006 
-19.416 40.6147 18.2216 80.4856 -17.4336 91.3733 -3.55271e-015 3.55271e-015 4.66705 -89.155 3.13508 -82.3398 9.33409 0 0 -6.35624 1.25832 8.53535 11.0269 -3.55271e-015 0 -6.46093 0.485715 12.443 27.2125 -7.10543e-015 -10.2659 28.6816 -3.76759 54.2268 10.9224 0 -1.42109e-014 -47.9919 -2.80696 -49.2352 23.8429 -1.55531 -7.12573 -109.929 -15.657 14.493 14.1892 1.42109e-014 7.10543e-015 -57.029 12.9352 46.8524 29.5651 2.84217e-014 8.88178e-015 16.5166 -26.6971 28.5275 25.3936 -2.84217e-014 3.01981e-014 54.8872 -3.97234 -6.02745 2.18163 2.84217e-014 1.77636e-015 8.00174e-007 1.58589e-006 -1.42833e-007 6.77462 0.0865053 -1.22157 -21.6739 1.19639 -9.42508 23.8431 1.55531 -7.12577 98.2061 11.3768 -175.493 -14.1892 0.000694916 0 5.68845 -25.6843 68.6683 -29.5651 0 -4.27958e-007 9.63089 21.9991 110.982 -25.3936 2.7868e-008 -5.56579e-007 -0.614556 9.92621 -0.449095 -2.18182 -0.000553688 -9.22559e-006 8.86284e-007 -1.24892e-008 -1.81133e-007 -6.77445 -0.0859989 1.22158 -21.6739 1.19639 -9.42509 -8.89671 -5.28428 -4.10676 49.0154 -14.3769 -177.572 43.6759 -7.10543e-015 -1.42109e-014 -7.5529 -3.51582 -135.57 45.3154 0 -2.13163e-014 88.8179 12.3497 95.3757 14.6877 3.55271e-015 0 7.13108 1.55867e-007 1.69398e-006 8.89671 -5.28429 -4.10672 107.438 0.954076 2.32937 -43.676 7.10543e-015 -3.48883e-006 5.79605 -13.0398 -136.453 -45.3154 -7.10543e-015 3.71138e-006 78.9579 23.3988 95.4048 -14.6877 -1.30235e-006 -3.88953e-006 7.13108 -1.1652e-007 5.48907e-006 
-19.1633 40.8438 18.5631 80.4381 -18.224 90.551 -3.55271e-015 3.55271e-015 4.66705 -89.2525 3.00677 -82.3677 9.33409 -3.55271e-015 0 -6.08726 1.0839 8.45921 11.0269 -3.55271e-015 7.10543e-015 -6.17307 0.344736 12.3702 27.2125 -7.10543e-015 -10.2659 29.1713 -6.59644 50.8901 10.9224 -7.10543e-015 -1.42109e-014 -49.4843 -4.50446 -48.417 23.8429 -1.55531 -7.12573 -110.905 -15.6191 13.7924 14.1892 2.13163e-014 7.10543e-015 -55.4375 10.7256 48.2295 29.5651 2.84217e-014 1.06581e-014 14.549 -28.1022 24.7329 25.3936 -2.84217e-014 2.84217e-014 54.7058 -3.90792 -5.90232 2.18163 2.84217e-014 3.55271e-015 8.00174e-007 1.58589e-006 -1.42833e-007 6.77462 0.0865053 -1.22157 -21.6739 1.19639 -9.42508 23.8431 1.55531 -7.12577 99.4541 11.643 -174.81 -14.1892 0.000694916 0 4.21491 -27.0255 64.9497 -29.5651 0 -4.27958e-007 11.6367 21.7811 108.355 -25.3936 2.7868e-008 -5.56579e-007 -2.67703 10.4467 -0.245605 -2.18182 -0.000553688 -9.22559e-006 8.86284e-007 -1.24892e-008 -1.81133e-007 -6.77445 -0.0859989 1.22158 -21.6739 1.19639 -9.42509 -8.89671 -5.28428 -4.10676 49.4058 -13.6159 -177.468 43.6759 -1.06581e-014 -1.42109e-014 -8.30662 -2.45178 -135.613 45.3154 0 -2.13163e-014 89.2844 12.359 95.1783 14.6877 -3.55271e-015 -7.10543e-015 7.13108 1.55867e-007 1.69398e-006 8.89671 -5.28429 -4.10672 107.896 1.27828 1.27286 -43.676 7.10543e-015 -3.48883e-006 6.04308 -13.4343 -136.154 -45.3154 -6.21725e-015 3.71138e-006 77.9802 23.3803 95.7543 -14.6877 -1.30235e-006 -3.88953e-006 7.13108 -1.1652e-007 5.48907e-006 
-18.8689 41.1446 18.9388 80.4276 -19.0429 89.6099 -3.55271e-015 -3.55271e-015 4.66705 -89.3219 2.90061 -82.4488 9.33409 0 7.10543e-015 -5.86603 0.964828 8.283 11.0269 -3.55271e-015 -3.55271e-015 -5.93922 0.253008 12.1968 27.2125 0 -10.2659 29.4709 -8.53834 47.872 10.9224 -7.10543e-015 -1.42109e-014 -50.3681 -5.90293 -47.3356 23.8429 -1.55531 -7.12573 -111.363 -15.6274 13.5579 14.1892 2.13163e-014 0 -54.7779 9.33208 49.2607 29.5651 3.55271e-014 7.10543e-015 13.0682 -29.5122 21.588 25.3936 -2.84217e-014 2.84217e-014 54.4332 -3.85393 -6.07721 2.18163 2.84217e-014 0 8.00174e-007 1.58589e-006 -1.42833e-007 6.77462 0.0865053 -1.22157 -21.6739 1.19639 -9.42508 23.8431 1.55531 -7.12577 100.57 11.8053 -174.589 -14.1892 0.000694916 0 2.57954 -28.0551 62.4997 -29.5651 0 -4.27958e-007 14.3179 20.5477 103.411 -25.3936 2.7868e-008 -5.56579e-007 -3.96665 10.6374 0.196011 -2.18182 -0.000553688 -9.22559e-006 8.86284e-007 -1.24892e-008 -1.81133e-007 -6.77445 -0.0859989 1.22158 -21.6739 1.19639 -9.42509 -8.89671 -5.28428 -4.10676 49.8056 -12.9847 -177.492 43.6759 -1.42109e-014 -1.42109e-014 -8.67346 -1.84989 -135.51 45.3154 -7.10543e-015 -2.13163e-014 89.8017 12.6174 94.8874 14.6877 0 0 7.13108 1.55867e-007 1.69398e-006 8.89671 -5.28429 -4.10672 108.469 1.7706 0.00421428 -43.676 5.32907e-015 -3.48883e-006 6.35859 -13.9455 -135.762 -45.3154 -6.21725e-015 3.71138e-006 77.0959 23.3077 96.0665 -14.6877 -1.30235e-006 -3.88953e-006 7.13108 -1.1652e-007 5.48907e-006 
-18.5309 41.5372 19.3409 80.3553 -19.8134 88.6319 0 0 4.66705 -89.338 2.84549 -82.5771 9.33409 -3.55271e-015 0 -5.75328 0.946886 8.0225 11.0269 0 7.10543e-015 -5.82512 0.248694 11.9376 27.2125 -7.10543e-015 -10.2659 29.6187 -9.9153 45.3329 10.9224 -7.10543e-015 0 -50.6988 -7.01778 -46.436 23.8429 -1.55531 -7.12573 -111.678 -15.6458 13.4382 14.1892 2.84217e-014 0 -54.2798 8.44885 49.2495 29.5651 2.13163e-014 7.10543e-015 12.139 -30.3729 19.8597 25.3936 -4.26326e-014 3.01981e-014 55.021 -4.00999 -6.04569 2.18163 2.84217e-014 0 8.00174e-007 1.58589e-006 -1.42833e-007 6.77462 0.0865053 -1.22157 -21.6739 1.19639 -9.42508 23.8431 1.55531 -7.12577 101.321 11.8667 -174.663 -14.1892 0.000694916 -1.42109e-014 0.69856 -28.4537 61.5137 -29.5651 0 -4.27958e-007 16.4992 17.797 96.8828 -25.3936 2.7868e-008 -5.56579e-007 -4.04689 10.4139 0.769807 -2.18182 -0.000553688 -9.22559e-006 8.86284e-007 -1.24892e-008 -1.81133e-007 -6.77445 -0.0859989 1.22158 -21.6739 1.19639 -9.42509 -8.89671 -5.28428 -4.10676 50.218 -12.4709 -177.661 43.6759 -1.42109e-014 -7.10543e-015 -8.72979 -1.62814 -135.278 45.3154 -7.10543e-015 -2.84217e-014 90.2834 13.0465 94.5691 14.6877 0 -7.10543e-015 7.13108 1.55867e-007 1.69398e-006 8.89671 -5.28429 -4.10672 109.047 2.23913 -1.3119 -43.676 3.55271e-015 -3.48883e-006 6.58734 -14.3173 -135.331 -45.3154 -6.21725e-015 3.71138e-006 76.185 23.1103 96.3733 -14.6877 -1.30235e-006 -3.88953e-006 7.13108 -1.1652e-007 5.48907e-006 
-18.2065 42.0054 19.7698 80.3391 -20.5381 87.6401 0 0 4.66705 -89.299 2.83701 -82.7179 9.33409 0 0 -5.74077 1.03258 7.74671 11.0269 -3.55271e-015 3.55271e-015 -5.82297 0.335264 11.6621 27.2125 0 -10.2659 30.0412 -10.7983 43.4757 10.9224 -7.10543e-015 -1.42109e-014 -51.0187 -7.78297 -46.0441 23.8429 -1.55531 -7.12573 -112.265 -15.6818 13.2236 14.1892 2.84217e-014 7.10543e-015 -52.8547 7.64502 48.6671 29.5651 2.84217e-014 1.06581e-014 11.1388 -31.259 18.4906 25.3936 -2.84217e-014 2.84217e-014 56.0768 -4.38444 -6.67478 2.18163 2.84217e-014 5.32907e-015 8.00174e-007 1.58589e-006 -1.42833e-007 6.77462 0.0865053 -1.22157 -21.6739 1.19639 -9.42508 23.8431 1.55531 -7.12577 101.795 11.914 -174.672 -14.1892 0.000694916 -7.10543e-015 -1.53312 -28.2508 61.4078 -29.5651 0 -4.27958e-007 17.6153 13.821 89.745 -25.3936 2.7868e-008 -5.56579e-007 -2.96113 9.79035 1.52239 -2.18182 -0.000553688 -9.22559e-006 8.86284e-007 -1.24892e-008 -1.81133e-007 -6.77445 -0.0859989 1.22158 -21.6739 1.19639 -9.42509 -8.89671 -5.28428 -4.10676 50.7316 -11.9327 -178.008 43.6759 -1.42109e-014 -7.10543e-015 -8.48033 -1.74421 -134.927 45.3154 0 -3.01981e-014 90.6991 13.5867 94.224 14.6877 0 -7.10543e-015 7.13108 1.55867e-007 1.69398e-006 8.89671 -5.28429 -4.10672 109.572 2.57304 -2.72859 -43.676 5.32907e-015 -3.48883e-006 6.67612 -14.4132 -134.855 -45.3154 -8.88178e-015 3.71138e-006 75.1957 22.7049 96.6772 -14.6877 -1.30235e-006 -3.88953e-006 7.13108 -1.1652e-007 5.48907e-006 
-17.945 42.531 20.2348 80.4655 -21.2489 86.5936 0 1.77636e-015 4.66705 -89.2258 2.83764 -82.8418 9.33409 0 3.55271e-015 -5.75079 1.18402 7.51026 11.0269 -7.10543e-015 0 -5.85106 0.484416 11.4256 27.2125 -3.55271e-015 -10.2659 31.0165 -11.3318 42.0886 10.9224 -7.10543e-015 -7.10543e-015 -51.6685 -8.42905 -45.879 23.8429 -1.55531 -7.12573 -113.05 -15.7424 12.9814 14.1892 2.84217e-014 -7.10543e-015 -50.5789 6.81746 48.3704 29.5651 2.84217e-014 7.10543e-015 9.03081 -31.8238 15.7842 25.3936 -2.84217e-014 3.19744e-014 57.0174 -4.7813 -7.63661 2.18163 2.13163e-014 -1.77636e-015 8.00174e-007 1.58589e-006 -1.42833e-007 6.77462 0.0865053 -1.22157 -21.6739 1.19639 -9.42508 23.8431 1.55531 -7.12577 102.214 11.9935 -174.523 -14.1892 0.000694916 0 -3.93454 -27.7778 61.582 -29.5651 0 -4.27958e-007 17.1916 9.41204 83.4081 -25.3936 2.7868e-008 -5.56579e-007 -0.802672 8.79146 2.56335 -2.18182 -0.000553688 -9.22559e-006 8.86284e-007 -1.24892e-008 -1.81133e-007 -6.77445 -0.0859989 1.22158 -21.6739 1.19639 -9.42509 -8.89671 -5.28428 -4.10676 51.3798 -11.3414 -178.478 43.6759 -1.06581e-014 -1.42109e-014 -7.9739 -2.1562 -134.491 45.3154 -7.10543e-015 -2.13163e-014 90.9969 14.2052 93.8912 14.6877 0 0 7.13108 1.55867e-007 1.69398e-006 8.89671 -5.28429 -4.10672 110.088 2.82038 -4.30399 -43.676 7.10543e-015 -3.48883e-006 6.60991 -14.2698 -134.32 -45.3154 -8.88178e-015 3.71138e-006 74.242 22.0747 96.9316 -14.6877 -1.30235e-006 -3.88953e-006 7.13108 -1.1652e-007 5.48907e-006 
